<svg id="Capa_1" enable-background="new 0 0 512 512" height="512" viewBox="0 0 512 512" width="512" xmlns="http://www.w3.org/2000/svg"><g><g><path d="m89.809 172.688c-4.059-.804-8.01 1.833-8.817 5.895l-3.798 19.124-6.147-19.957c-1.219-3.958-5.416-6.18-9.375-4.959-2.643.814-4.504 2.958-5.091 5.471l-6.002 19.395-3.781-19.151c-.802-4.064-4.752-6.708-8.811-5.905-4.063.802-6.708 4.747-5.905 8.811l8.786 44.503c.07.357.167.709.289 1.053 1.201 3.388 4.419 5.656 8.019 5.656h.04c3.621-.017 6.844-2.329 8.021-5.752.025-.073.049-.147.072-.221l6.569-21.226 6.544 21.246c.052.168.109.334.173.498 1.269 3.28 4.458 5.456 7.97 5.456.054 0 .109 0 .164-.001 3.567-.068 6.743-2.381 7.9-5.754.109-.318.197-.644.263-.974l8.815-44.389c.804-4.065-1.835-8.012-5.898-8.819z"/><path d="m172.029 170.455c-16.586 0-30.081 13.494-30.081 30.081 0 16.586 13.494 30.081 30.081 30.081s30.08-13.494 30.08-30.081-13.493-30.081-30.08-30.081zm0 45.161c-8.315 0-15.081-6.765-15.081-15.081s6.765-15.081 15.081-15.081 15.08 6.765 15.08 15.081-6.764 15.081-15.08 15.081z"/><path d="m276.316 228.785c4.142 0 7.5-3.358 7.5-7.5v-7.875l11.279 12.828c1.482 1.686 3.554 2.547 5.635 2.547 1.759 0 3.525-.615 4.95-1.868 3.11-2.735 3.415-7.474.68-10.585l-9.699-11.03c6.817-3.054 11.566-9.716 11.566-17.445 0-10.622-8.923-19.263-19.892-19.263h-11.991c-.005 0-.01.001-.014.001s-.009-.001-.014-.001c-4.142 0-7.5 3.358-7.5 7.5v45.19c0 4.143 3.358 7.501 7.5 7.501zm12.019-45.191c2.606 0 4.892 1.992 4.892 4.263 0 2.255-2.286 4.234-4.892 4.234-1.09 0-2.733.003-4.456.007-.004-1.648-.007-3.208-.007-4.241 0-.9-.003-2.513-.007-4.263z"/><path d="m158.95 341.545c4.142 0 7.5-3.358 7.5-7.5v-21.019l16.808 24.336c.022.032.045.064.068.097 2.159 3.023 5.74 4.277 9.123 3.193 3.435-1.101 5.654-4.29 5.653-8.198l-.429-43.645c-.041-4.117-3.39-7.426-7.498-7.426-.025 0-.05 0-.075 0-4.142.041-7.467 3.431-7.426 7.573l.211 21.47-17.764-25.72c-1.865-2.701-5.268-3.875-8.404-2.898-3.133.977-5.268 3.878-5.268 7.16v45.076c.001 4.144 3.359 7.501 7.501 7.501z"/><path d="m161.068 74.182h4.434v35.944c0 4.142 3.358 7.5 7.5 7.5s7.5-3.358 7.5-7.5v-35.944h4.549c4.142 0 7.5-3.358 7.5-7.5s-3.358-7.5-7.5-7.5h-23.983c-4.142 0-7.5 3.358-7.5 7.5s3.358 7.5 7.5 7.5z"/><path d="m93.416 423.51c0-16.586-13.494-30.081-30.081-30.081s-30.08 13.494-30.08 30.081 13.494 30.081 30.08 30.081 30.081-13.494 30.081-30.081zm-30.081 15.081c-8.315 0-15.08-6.765-15.08-15.081 0-8.315 6.765-15.081 15.08-15.081s15.081 6.765 15.081 15.081-6.766 15.081-15.081 15.081z"/><path d="m512 240.481c-.007-8.681-3.374-16.816-9.473-22.897-6.108-6.109-14.253-9.473-22.932-9.473-6.478 0-12.657 1.876-17.915 5.366v-69.147c0-4.142-3.358-7.5-7.5-7.5h-104.17v-104.18c0-4.142-3.358-7.5-7.5-7.5 0 0-111.715.003-111.738.003h-111.602c-4.142 0-7.5 3.358-7.5 7.5v104.173h-104.17c-4.142 0-7.5 3.358-7.5 7.5v.003 335.017c0 4.142 3.358 7.5 7.5 7.5h40.753c4.142 0 7.5-3.358 7.5-7.5s-3.358-7.5-7.5-7.5h-33.253v-96.676h96.67v96.677h-30.849c-4.142 0-7.5 3.358-7.5 7.5s3.358 7.5 7.5 7.5h38.349c4.142 0 7.5-3.358 7.5-7.5v-104.174h96.669v104.177c0 4.142 3.358 7.5 7.5 7.5h111.67c4.142 0 7.5-3.358 7.5-7.5v-63.381l62.999-63.027c2.928-2.93 2.927-7.678-.002-10.607-2.93-2.928-7.678-2.927-10.607.002l-63.839 63.868-24.651-24.651 137.135-137.139 24.638 24.659-48.382 48.363c-2.93 2.928-2.931 7.677-.002 10.606 2.928 2.93 7.677 2.931 10.606.002l53.631-53.609c.018-.018.039-.033.057-.052.019-.018.034-.039.052-.058l10.882-10.877c6.116-6.115 9.48-14.272 9.474-22.968zm-65.32-88.651v75.736l-.653.653c-.098.089-.2.172-.295.266-.096.096-.181.2-.271.3l-19.714 19.715h-75.737v-96.67zm-132.6 208.34h-75.74v-96.67h96.669v75.74zm12.31 55.078-35.278 20.652c-2.861 1.333-5.088-.558-5.712-1.181-.628-.627-2.539-2.866-1.208-5.75l20.671-35.249 10.766 10.767zm-311.39-263.418h96.67v96.67h-96.67zm111.67 0h96.669v96.67h-96.669zm208.34 96.67h-96.67v-96.67h96.669v96.67zm-111.67 15v96.67h-96.67v-96.67zm126.67 0h60.738l-60.738 60.739zm-15-126.67h-96.67v-96.68h96.669v96.68zm-111.67-96.677v96.677h-96.67v-96.677zm-208.34 223.347h96.67v96.67h-96.67zm223.34 208.35v-96.68h60.741c-.809.809-1.662 1.592-2.247 2.59l-25.729 43.874c-.082.14-.159.281-.231.426-3.936 7.831-2.393 16.969 3.931 23.278 3.978 3.969 9.072 6.04 14.251 6.04 3.036 0 6.102-.712 8.987-2.17.138-.07.273-.144.406-.221l36.561-21.403v44.267h-96.67zm253.581-219.008-5.629 5.627-24.641-24.661 5.617-5.617c3.276-3.276 7.653-5.08 12.326-5.08 4.672 0 9.05 1.804 12.333 5.087 3.267 3.258 5.068 7.624 5.072 12.294.004 4.686-1.8 9.072-5.078 12.35z"/></g></g></svg>